<?xml version="1.0" encoding="utf-8"?>
<!-- Generator: Adobe Illustrator 21.0.1, SVG Export Plug-In . SVG Version: 6.00 Build 0)  -->
<svg version="1.1" id="Слой_1" xmlns="http://www.w3.org/2000/svg" xmlns:xlink="http://www.w3.org/1999/xlink" x="0px" y="0px"
	 viewBox="0 0 130 130" style="enable-background:new 0 0 130 130;" xml:space="preserve" fill="#cbcbcb">
<title>insta</title>
<g id="Слой_2">
	<g id="Var2">
		<g id="Иконки">
			<g id="instagram">
				<path d="M65,11.7c17.4,0,19.4,0.1,26.3,0.4c4.1,0,8.2,0.8,12.1,2.2c5.7,2.2,10.1,6.7,12.3,12.4c1.4,3.9,2.2,8,2.3,12.1
					c0.3,6.9,0.4,8.9,0.4,26.3s-0.1,19.4-0.4,26.3c-0.1,4.1-0.8,8.2-2.2,12.1c-2.2,5.7-6.7,10.2-12.3,12.3c-3.9,1.4-8,2.2-12.1,2.2
					c-6.9,0.3-8.9,0.4-26.3,0.4s-19.4-0.1-26.3-0.4c-4.1-0.1-8.2-0.8-12.1-2.2c-5.7-2.2-10.2-6.7-12.4-12.3
					c-1.4-3.9-2.2-7.9-2.3-12.1c-0.3-6.9-0.4-8.9-0.4-26.3s0.1-19.4,0.4-26.3c0.1-4.1,0.8-8.2,2.2-12.1c2.2-5.7,6.7-10.2,12.4-12.3
					c3.9-1.4,8-2.2,12.1-2.2C45.6,11.8,47.6,11.7,65,11.7 M65,0C47.3,0,45.1,0.1,38.2,0.4c-5.4,0.1-10.7,1.1-15.8,3
					c-8.7,3.4-15.6,10.3-19,19c-1.9,5.1-2.9,10.4-3,15.8C0.1,45.1,0,47.3,0,65s0.1,19.9,0.4,26.8c0.1,5.4,1.1,10.7,3,15.8
					c3.4,8.7,10.3,15.6,19,19c5.1,1.9,10.4,2.9,15.8,3c6.9,0.3,9.2,0.4,26.8,0.4s19.9-0.1,26.8-0.4c5.4-0.1,10.7-1.1,15.8-3
					c8.7-3.4,15.6-10.3,19-19c1.9-5.1,2.9-10.4,3-15.8c0.3-6.9,0.4-9.2,0.4-26.8s-0.1-19.9-0.4-26.8c-0.1-5.4-1.1-10.7-3-15.8
					c-3.4-8.7-10.3-15.6-19-19c-5.1-1.9-10.4-2.9-15.8-3C84.9,0.1,82.7,0,65,0z"/>
				<path d="M65,31.7c-18.5,0-33.4,14.9-33.4,33.4s14.9,33.4,33.4,33.4s33.4-14.9,33.4-33.4c0,0,0,0,0,0l0,0
					C98.4,46.6,83.4,31.7,65,31.7z M65,86.8c-12,0-21.7-9.7-21.7-21.7c0-12,9.7-21.7,21.7-21.7s21.7,9.7,21.7,21.7c0,0,0,0,0,0l0,0
					C86.7,77,77,86.7,65,86.8L65,86.8z"/>
				<circle cx="99.7" cy="30.3" r="7.8"/>
			</g>
		</g>
	</g>
</g>
</svg>
