<?xml version="1.0" encoding="utf-8"?>
<!-- Generator: Adobe Illustrator 21.0.1, SVG Export Plug-In . SVG Version: 6.00 Build 0)  -->
<svg version="1.1" id="Слой_1" xmlns="http://www.w3.org/2000/svg" xmlns:xlink="http://www.w3.org/1999/xlink" x="0px" y="0px"
	 viewBox="0 0 80 138.2" style="enable-background:new 0 0 80 138.2;" xml:space="preserve" fill="#cbcbcb">
<title>ok</title>
<g id="Слой_2">
	<g id="Var2">
		<g id="Иконки">
			<g id="ok">
				<path d="M40,71.3c19.7,0,35.7-15.9,35.7-35.6C75.7,16,59.8,0,40.1,0S4.4,15.9,4.4,35.6c0,0,0,0,0,0l0,0
					C4.4,55.4,20.3,71.3,40,71.3z M40,20.9c8.2,0,14.8,6.6,14.8,14.7c0,8.2-6.6,14.8-14.7,14.8s-14.8-6.6-14.8-14.7c0,0,0,0,0,0
					C25.3,27.5,31.9,20.9,40,20.9z"/>
				<path d="M54.5,100.4c7.3-1.7,14.3-4.6,20.7-8.6c4.9-3.1,6.4-9.5,3.3-14.4c-3.1-4.9-9.5-6.4-14.4-3.3l0,0
					c-14.7,9.2-33.3,9.2-48,0c-4.9-3-11.4-1.4-14.4,3.5c-2.9,4.8-1.5,11.1,3.2,14.2c6.4,4,13.4,6.9,20.7,8.6l-20,19.9
					c-4.1,4.1-4.1,10.7,0,14.8c4.1,4.1,10.7,4.1,14.8,0l0,0L40,115.6l19.6,19.6c4.1,4.1,10.7,4.1,14.8,0c4.1-4.1,4.1-10.7,0-14.8
					l0,0L54.5,100.4z"/>
			</g>
		</g>
	</g>
</g>
</svg>
