<?xml version="1.0" encoding="utf-8"?>
<!-- Generator: Adobe Illustrator 21.0.1, SVG Export Plug-In . SVG Version: 6.00 Build 0)  -->
<svg version="1.1" id="Слой_1" xmlns="http://www.w3.org/2000/svg" xmlns:xlink="http://www.w3.org/1999/xlink" x="0px" y="0px"
	 viewBox="0 0 160.9 91.8" style="enable-background:new 0 0 160.9 91.8;" xml:space="preserve" fill="#cbcbcb">
<title>vk</title>
<g id="Слой_2">
	<g id="Var2">
		<g id="Иконки">
			<path id="vk_alt" d="M78.8,91.4h9.6c0,0,2.9-0.3,4.4-1.9c0.9-1.2,1.4-2.7,1.3-4.2c0,0-0.2-12.9,5.8-14.8s13.5,12.5,21.5,18
				c6.1,4.2,10.7,3.3,10.7,3.3l21.5-0.3c0,0,11.2-0.7,5.9-9.5c-0.4-0.7-3.1-6.5-16-18.5c-13.5-12.5-11.7-10.5,4.6-32.1
				C158,18.1,161.9,10,160.7,6.6c-1.2-3.3-8.4-2.4-8.4-2.4L128,4.3c-1.1-0.1-2.2,0.1-3.1,0.6c-0.9,0.7-1.6,1.6-2.1,2.6
				c-2.5,6.5-5.5,12.8-8.9,18.9C103.1,44.6,98.8,45.5,97,44.5c-4.1-2.7-3.1-10.6-3.1-16.3c0-17.7,2.7-25.1-5.2-27
				C86.1,0.5,84.1,0.1,77.4,0c-8.6-0.1-15.9,0-20.1,2.1c-2.8,1.4-4.9,4.4-3.6,4.5c1.6,0.2,5.2,1,7.1,3.6c2.5,3.4,2.4,11,2.4,11
				S64.7,42,60,44.6c-3.3,1.8-7.7-1.8-17.3-18.5c-3.3-5.8-6.2-11.8-8.7-17.9c-0.4-1-1.1-2-2-2.7c-1.1-0.8-2.4-1.3-3.8-1.5l-23,0.2
				c0,0-3.5,0.1-4.7,1.6c-1.1,1.3-0.1,4.1-0.1,4.1s18,42.1,38.4,63.3C57.5,92.7,78.7,91.4,78.8,91.4L78.8,91.4z"/>
		</g>
	</g>
</g>
</svg>
