<svg xmlns="http://www.w3.org/2000/svg" viewBox="0 0 130 130" fill="#cbcbcb"><title>insta</title><path d="M65 11.7c17.4 0 19.4.1 26.3.4 4.1 0 8.2.8 12.1 2.2 5.7 2.2 10.1 6.7 12.3 12.4 1.4 3.9 2.2 8 2.3 12.1.3 6.9.4 8.9.4 26.3s-.1 19.4-.4 26.3c-.1 4.1-.8 8.2-2.2 12.1-2.2 5.7-6.7 10.2-12.3 12.3-3.9 1.4-8 2.2-12.1 2.2-6.9.3-8.9.4-26.3.4s-19.4-.1-26.3-.4c-4.1-.1-8.2-.8-12.1-2.2-5.7-2.2-10.2-6.7-12.4-12.3-1.4-3.9-2.2-7.9-2.3-12.1-.3-6.9-.4-8.9-.4-26.3s.1-19.4.4-26.3c.1-4.1.8-8.2 2.2-12.1 2.2-5.7 6.7-10.2 12.4-12.3 3.9-1.4 8-2.2 12.1-2.2 6.9-.4 8.9-.5 26.3-.5M65 0C47.3 0 45.1.1 38.2.4c-5.4.1-10.7 1.1-15.8 3-8.7 3.4-15.6 10.3-19 19C1.5 27.5.5 32.8.4 38.2.1 45.1 0 47.3 0 65s.1 19.9.4 26.8c.1 5.4 1.1 10.7 3 15.8 3.4 8.7 10.3 15.6 19 19 5.1 1.9 10.4 2.9 15.8 3 6.9.3 9.2.4 26.8.4s19.9-.1 26.8-.4c5.4-.1 10.7-1.1 15.8-3 8.7-3.4 15.6-10.3 19-19 1.9-5.1 2.9-10.4 3-15.8.3-6.9.4-9.2.4-26.8s-.1-19.9-.4-26.8c-.1-5.4-1.1-10.7-3-15.8-3.4-8.7-10.3-15.6-19-19-5.1-1.9-10.4-2.9-15.8-3C84.9.1 82.7 0 65 0z"/><path d="M65 31.7c-18.5 0-33.4 14.9-33.4 33.4S46.5 98.5 65 98.5s33.4-14.9 33.4-33.4-15-33.4-33.4-33.4zm0 55.1c-12 0-21.7-9.7-21.7-21.7S53 43.4 65 43.4s21.7 9.7 21.7 21.7C86.7 77 77 86.7 65 86.8z"/><circle cx="99.7" cy="30.3" r="7.8"/></svg>