<svg xmlns="http://www.w3.org/2000/svg" viewBox="0 0 80 138.2" fill="#cbcbcb"><title>ok</title><path d="M40 71.3c19.7 0 35.7-15.9 35.7-35.6C75.7 16 59.8 0 40.1 0S4.4 15.9 4.4 35.6c0 19.8 15.9 35.7 35.6 35.7zm0-50.4c8.2 0 14.8 6.6 14.8 14.7 0 8.2-6.6 14.8-14.7 14.8s-14.8-6.6-14.8-14.7c0-8.2 6.6-14.8 14.7-14.8zM54.5 100.4c7.3-1.7 14.3-4.6 20.7-8.6 4.9-3.1 6.4-9.5 3.3-14.4-3.1-4.9-9.5-6.4-14.4-3.3a45.19 45.19 0 0 1-48 0c-4.9-3-11.4-1.4-14.4 3.5-2.9 4.8-1.5 11.1 3.2 14.2 6.4 4 13.4 6.9 20.7 8.6l-20 19.9c-4.1 4.1-4.1 10.7 0 14.8 4.1 4.1 10.7 4.1 14.8 0L40 115.6l19.6 19.6c4.1 4.1 10.7 4.1 14.8 0 4.1-4.1 4.1-10.7 0-14.8l-19.9-20z"/></svg>