<svg xmlns="http://www.w3.org/2000/svg" viewBox="0 0 160.9 91.8" fill="#cbcbcb"><title>vk</title><path d="M78.8 91.4h9.6s2.9-.3 4.4-1.9c.9-1.2 1.4-2.7 1.3-4.2 0 0-.2-12.9 5.8-14.8s13.5 12.5 21.5 18c6.1 4.2 10.7 3.3 10.7 3.3l21.5-.3s11.2-.7 5.9-9.5c-.4-.7-3.1-6.5-16-18.5C130 51 131.8 53 148.1 31.4 158 18.1 161.9 10 160.7 6.6c-1.2-3.3-8.4-2.4-8.4-2.4l-24.3.1c-1.1-.1-2.2.1-3.1.6-.9.7-1.6 1.6-2.1 2.6-2.5 6.5-5.5 12.8-8.9 18.9C103.1 44.6 98.8 45.5 97 44.5c-4.1-2.7-3.1-10.6-3.1-16.3 0-17.7 2.7-25.1-5.2-27C86.1.5 84.1.1 77.4 0c-8.6-.1-15.9 0-20.1 2.1-2.8 1.4-4.9 4.4-3.6 4.5 1.6.2 5.2 1 7.1 3.6 2.5 3.4 2.4 11 2.4 11S64.7 42 60 44.6c-3.3 1.8-7.7-1.8-17.3-18.5-3.3-5.8-6.2-11.8-8.7-17.9-.4-1-1.1-2-2-2.7-1.1-.8-2.4-1.3-3.8-1.5l-23 .2S1.7 4.3.5 5.8C-.6 7.1.4 9.9.4 9.9s18 42.1 38.4 63.3c18.7 19.5 39.9 18.2 40 18.2z"/></svg>