<svg xmlns="http://www.w3.org/2000/svg" viewBox="0 0 114.5 138.5" fill="#cbcbcb"><title>yt</title><path d="M95.6 90.9c-2.3 0-3.5 1.8-3.5 5.3v3.5H99v-3.5c0-3.5-1.1-5.3-3.4-5.3z"/><path d="M112.5 71.5c-1.3-6-6.3-10.5-12.4-11.3-14.2-1.6-28.6-1.6-42.9-1.6s-28.7 0-42.9 1.6c-6 .8-11 5.3-12.3 11.3-2 8.7-2 18.1-2 27.1s0 18.4 2 27.1c1.3 6 6.3 10.5 12.4 11.3 14.2 1.6 28.6 1.6 42.9 1.6s28.7 0 42.9-1.6c6.1-.7 11.1-5.3 12.4-11.3 2-8.7 2-18.1 2-27.1s-.1-18.4-2.1-27.1zm-79.9 7.8h-8.3v44h-7.7v-44H8.5v-7.2h24.1v7.2zm20.9 44h-6.9v-4.2c-2.8 3.2-5.4 4.7-7.9 4.7-2.2 0-3.8-.9-4.5-2.8-.5-1.9-.7-3.8-.6-5.7V85.2h6.9v28.1c0 .9 0 1.8.1 2.7.2 1.1.7 1.6 1.6 1.6 1.4 0 2.8-1.1 4.4-3.2V85.2h6.9v38.1zm26.3-11.4c.1 2.6-.1 5.2-.7 7.7-.9 2.8-2.8 4.3-5.5 4.3-2.5 0-4.8-1.4-7.2-4.2v3.7h-6.9V72.1h6.9v16.7c2.2-2.8 4.6-4.1 7.2-4.1 2.8 0 4.6 1.4 5.5 4.3.6 2.5.8 5.1.7 7.7v15.2zm26.1-6.4H92.1v6.8c0 3.5 1.2 5.3 3.5 5.3 1.7 0 2.7-.9 3.1-2.8.1-1.6.2-3.1.2-4.7h7.1v1c0 2.2-.1 3.8-.2 4.5-.2 1.5-.8 2.9-1.6 4.1-1.9 2.7-5 4.3-8.4 4.1-3.3.2-6.4-1.3-8.4-3.9-1.5-1.9-2.2-4.9-2.2-9V97.6c0-4.1.7-7.1 2.1-9 2-2.6 5.1-4.1 8.3-3.9 3.2-.1 6.3 1.3 8.2 3.9 1.4 1.9 2.1 4.9 2.1 9v7.9z"/><path d="M69.9 90.9c-1.3.1-2.6.7-3.4 1.7v23.3c.9 1 2.1 1.6 3.4 1.7 2 0 3-1.7 3-5.2V96.1c0-3.4-1-5.2-3-5.2zM45.2 0h-7.9L32 20.3 26.6 0h-8.1c1.6 4.8 3.3 9.6 5 14.4 1.9 5.3 3.5 10.8 4.7 16.4v21h7.7v-21L45.2 0zM66 39.3V25.8c0-4.1-.7-7.1-2.2-9.1-3.5-4.5-10.1-5.3-14.6-1.7-.6.5-1.2 1.1-1.7 1.7-1.5 2-2.2 5-2.2 9.1v13.5c0 4.1.7 7.1 2.2 9.1 3.5 4.5 10.1 5.3 14.6 1.7.6-.5 1.2-1.1 1.7-1.7 1.5-2 2.2-5 2.2-9.1zm-7 1.3c0 3.6-1.1 5.3-3.3 5.3s-3.3-1.8-3.3-5.3V24.4c0-3.6 1.1-5.3 3.3-5.3s3.3 1.8 3.3 5.3v16.2zm32.8 11.1V13.2h-7v29.5c-1.6 2.2-3 3.3-4.4 3.3-.9 0-1.5-.5-1.6-1.6-.1-.9-.1-1.8-.1-2.7V13.2h-7v30.5c-.1 1.9.1 3.9.6 5.7.7 2 2.3 2.9 4.5 2.9 2.6 0 5.2-1.5 8-4.7v4.2l7-.1z"/></svg>